<svg width="162" height="27" viewBox="0 0 162 27" fill="none" xmlns="http://www.w3.org/2000/svg">
<path d="M29.9246 24.7192C30.3288 25.4185 29.8241 26.2934 29.0164 26.2934H1.05055C0.242798 26.2934 -0.261835 25.4185 0.142351 24.7192L4.96364 16.3774H25.1043L29.9246 24.7192ZM14.1257 0.523857C14.5298 -0.1745 15.5383 -0.174739 15.9422 0.523857L23.5877 13.7543H6.47927L14.1257 0.523857Z" fill="black"/>
<path d="M52.9314 0.626727V3.97473H46.2714V25.6467H42.1674V3.97473H35.4714V0.626727H52.9314ZM73.4677 15.2427C73.4677 15.9867 73.4197 16.6587 73.3237 17.2587H58.1677C58.2877 18.8427 58.8757 20.1147 59.9317 21.0747C60.9877 22.0347 62.2837 22.5147 63.8197 22.5147C66.0277 22.5147 67.5877 21.5907 68.4997 19.7427H72.9277C72.3277 21.5667 71.2357 23.0667 69.6517 24.2427C68.0917 25.3947 66.1477 25.9707 63.8197 25.9707C61.9237 25.9707 60.2197 25.5507 58.7077 24.7107C57.2197 23.8467 56.0437 22.6467 55.1797 21.1107C54.3397 19.5507 53.9197 17.7507 53.9197 15.7107C53.9197 13.6707 54.3277 11.8827 55.1437 10.3467C55.9837 8.78673 57.1477 7.58673 58.6357 6.74673C60.1477 5.90673 61.8757 5.48673 63.8197 5.48673C65.6917 5.48673 67.3597 5.89473 68.8237 6.71073C70.2877 7.52673 71.4277 8.67873 72.2437 10.1667C73.0597 11.6307 73.4677 13.3227 73.4677 15.2427ZM69.1837 13.9467C69.1597 12.4347 68.6197 11.2227 67.5637 10.3107C66.5077 9.39873 65.1997 8.94273 63.6397 8.94273C62.2237 8.94273 61.0117 9.39873 60.0037 10.3107C58.9957 11.1987 58.3957 12.4107 58.2037 13.9467H69.1837ZM79.8104 8.69073C80.4104 7.68273 81.2024 6.90273 82.1864 6.35073C83.1944 5.77473 84.3824 5.48673 85.7504 5.48673V9.73473H84.7064C83.0984 9.73473 81.8744 10.1427 81.0344 10.9587C80.2184 11.7747 79.8104 13.1907 79.8104 15.2067V25.6467H75.7064V5.81073H79.8104V8.69073ZM86.3549 15.7107C86.3549 13.6707 86.7629 11.8827 87.5789 10.3467C88.4189 8.78673 89.5709 7.58673 91.0349 6.74673C92.4989 5.90673 94.1789 5.48673 96.0749 5.48673C98.4749 5.48673 100.455 6.06273 102.015 7.21473C103.599 8.34273 104.667 9.96273 105.219 12.0747H100.791C100.431 11.0907 99.8549 10.3227 99.0629 9.77073C98.2709 9.21873 97.2749 8.94273 96.0749 8.94273C94.3949 8.94273 93.0509 9.54273 92.0429 10.7427C91.0589 11.9187 90.5669 13.5747 90.5669 15.7107C90.5669 17.8467 91.0589 19.5147 92.0429 20.7147C93.0509 21.9147 94.3949 22.5147 96.0749 22.5147C98.4509 22.5147 100.023 21.4707 100.791 19.3827H105.219C104.643 21.3987 103.563 23.0067 101.979 24.2067C100.395 25.3827 98.4269 25.9707 96.0749 25.9707C94.1789 25.9707 92.4989 25.5507 91.0349 24.7107C89.5709 23.8467 88.4189 22.6467 87.5789 21.1107C86.7629 19.5507 86.3549 17.7507 86.3549 15.7107ZM125.689 15.2427C125.689 15.9867 125.641 16.6587 125.545 17.2587H110.389C110.509 18.8427 111.097 20.1147 112.153 21.0747C113.209 22.0347 114.505 22.5147 116.041 22.5147C118.249 22.5147 119.809 21.5907 120.721 19.7427H125.149C124.549 21.5667 123.457 23.0667 121.873 24.2427C120.313 25.3947 118.369 25.9707 116.041 25.9707C114.145 25.9707 112.441 25.5507 110.929 24.7107C109.441 23.8467 108.265 22.6467 107.401 21.1107C106.561 19.5507 106.141 17.7507 106.141 15.7107C106.141 13.6707 106.549 11.8827 107.365 10.3467C108.205 8.78673 109.369 7.58673 110.857 6.74673C112.369 5.90673 114.097 5.48673 116.041 5.48673C117.913 5.48673 119.581 5.89473 121.045 6.71073C122.509 7.52673 123.649 8.67873 124.465 10.1667C125.281 11.6307 125.689 13.3227 125.689 15.2427ZM121.405 13.9467C121.381 12.4347 120.841 11.2227 119.785 10.3107C118.729 9.39873 117.421 8.94273 115.861 8.94273C114.445 8.94273 113.233 9.39873 112.225 10.3107C111.217 11.1987 110.617 12.4107 110.425 13.9467H121.405ZM132.032 8.69073C132.632 7.68273 133.424 6.90273 134.408 6.35073C135.416 5.77473 136.604 5.48673 137.972 5.48673V9.73473H136.928C135.32 9.73473 134.096 10.1427 133.256 10.9587C132.44 11.7747 132.032 13.1907 132.032 15.2067V25.6467H127.928V5.81073H132.032V8.69073ZM148.548 25.9707C146.676 25.9707 144.984 25.5507 143.472 24.7107C141.96 23.8467 140.772 22.6467 139.908 21.1107C139.044 19.5507 138.612 17.7507 138.612 15.7107C138.612 13.6947 139.056 11.9067 139.944 10.3467C140.832 8.78673 142.044 7.58673 143.58 6.74673C145.116 5.90673 146.832 5.48673 148.728 5.48673C150.624 5.48673 152.34 5.90673 153.876 6.74673C155.412 7.58673 156.624 8.78673 157.512 10.3467C158.4 11.9067 158.844 13.6947 158.844 15.7107C158.844 17.7267 158.388 19.5147 157.476 21.0747C156.564 22.6347 155.316 23.8467 153.732 24.7107C152.172 25.5507 150.444 25.9707 148.548 25.9707ZM148.548 22.4067C149.604 22.4067 150.588 22.1547 151.5 21.6507C152.436 21.1467 153.192 20.3907 153.768 19.3827C154.344 18.3747 154.632 17.1507 154.632 15.7107C154.632 14.2707 154.356 13.0587 153.804 12.0747C153.252 11.0667 152.52 10.3107 151.608 9.80673C150.696 9.30273 149.712 9.05073 148.656 9.05073C147.6 9.05073 146.616 9.30273 145.704 9.80673C144.816 10.3107 144.108 11.0667 143.58 12.0747C143.052 13.0587 142.788 14.2707 142.788 15.7107C142.788 17.8467 143.328 19.5027 144.408 20.6787C145.512 21.8307 146.892 22.4067 148.548 22.4067Z" fill="black"/>
</svg>
