<svg width="159" height="27" viewBox="0 0 159 27" fill="none" xmlns="http://www.w3.org/2000/svg">
<path d="M29.9254 24.7194C30.3291 25.4187 29.8247 26.2925 29.0172 26.2927H1.05038C0.242797 26.2926 -0.261645 25.4187 0.142175 24.7194L4.96346 16.3767H25.1041L29.9254 24.7194ZM14.1256 0.52412C14.5295 -0.174707 15.5381 -0.174707 15.942 0.52412L23.5875 13.7536H6.48007L14.1256 0.52412Z" fill="black"/>
<path d="M148.144 25.8183C146.272 25.8183 144.58 25.3983 143.068 24.5583C141.556 23.6943 140.368 22.4944 139.504 20.9584C138.64 19.3984 138.208 17.5983 138.208 15.5583C138.208 13.5423 138.652 11.7544 139.54 10.1944C140.428 8.63435 141.64 7.43435 143.176 6.59435C144.712 5.75435 146.428 5.33435 148.324 5.33435C150.22 5.33435 151.936 5.75435 153.472 6.59435C155.008 7.43435 156.22 8.63435 157.108 10.1944C157.996 11.7544 158.44 13.5423 158.44 15.5583C158.44 17.5744 157.984 19.3623 157.072 20.9223C156.16 22.4823 154.912 23.6943 153.328 24.5583C151.768 25.3983 150.04 25.8183 148.144 25.8183ZM148.144 22.2544C149.2 22.2544 150.184 22.0024 151.096 21.4984C152.032 20.9944 152.788 20.2384 153.364 19.2304C153.94 18.2224 154.228 16.9984 154.228 15.5583C154.228 14.1183 153.952 12.9063 153.4 11.9223C152.848 10.9143 152.116 10.1583 151.204 9.65435C150.292 9.15035 149.308 8.89835 148.252 8.89835C147.196 8.89835 146.212 9.15035 145.3 9.65435C144.412 10.1583 143.704 10.9143 143.176 11.9223C142.648 12.9063 142.384 14.1183 142.384 15.5583C142.384 17.6944 142.924 19.3504 144.004 20.5264C145.108 21.6784 146.488 22.2544 148.144 22.2544Z" fill="black"/>
<path d="M131.627 8.53835C132.227 7.53035 133.019 6.75035 134.003 6.19835C135.011 5.62235 136.199 5.33435 137.567 5.33435V9.58235H136.523C134.915 9.58235 133.691 9.99035 132.851 10.8063C132.035 11.6223 131.627 13.0384 131.627 15.0543V25.4944H127.523V5.65835H131.627V8.53835Z" fill="black"/>
<path d="M125.284 15.0904C125.284 15.8343 125.236 16.5063 125.14 17.1063H109.984C110.104 18.6903 110.692 19.9623 111.748 20.9223C112.804 21.8823 114.1 22.3624 115.636 22.3624C117.844 22.3624 119.404 21.4384 120.316 19.5904H124.744C124.144 21.4144 123.052 22.9144 121.468 24.0904C119.908 25.2424 117.964 25.8183 115.636 25.8183C113.74 25.8183 112.036 25.3983 110.524 24.5583C109.036 23.6943 107.86 22.4944 106.996 20.9584C106.156 19.3984 105.736 17.5983 105.736 15.5583C105.736 13.5183 106.144 11.7303 106.96 10.1944C107.8 8.63435 108.964 7.43435 110.452 6.59435C111.964 5.75435 113.692 5.33435 115.636 5.33435C117.508 5.33435 119.176 5.74235 120.64 6.55835C122.104 7.37435 123.244 8.52635 124.06 10.0143C124.876 11.4783 125.284 13.1703 125.284 15.0904ZM121 13.7943C120.976 12.2823 120.436 11.0703 119.38 10.1583C118.324 9.24635 117.016 8.79035 115.456 8.79035C114.04 8.79035 112.828 9.24635 111.82 10.1583C110.812 11.0463 110.212 12.2583 110.02 13.7943H121Z" fill="black"/>
<path d="M85.9502 15.5583C85.9502 13.5183 86.3582 11.7303 87.1742 10.1944C88.0142 8.63435 89.1662 7.43435 90.6302 6.59435C92.0942 5.75435 93.7742 5.33435 95.6702 5.33435C98.0702 5.33435 100.05 5.91035 101.61 7.06235C103.194 8.19035 104.262 9.81035 104.814 11.9223H100.386C100.026 10.9383 99.4502 10.1704 98.6582 9.61835C97.8662 9.06635 96.8702 8.79035 95.6702 8.79035C93.9902 8.79035 92.6462 9.39035 91.6382 10.5903C90.6542 11.7663 90.1622 13.4223 90.1622 15.5583C90.1622 17.6944 90.6542 19.3623 91.6382 20.5623C92.6462 21.7623 93.9902 22.3624 95.6702 22.3624C98.0462 22.3624 99.6182 21.3184 100.386 19.2304H104.814C104.238 21.2464 103.158 22.8543 101.574 24.0543C99.9902 25.2304 98.0222 25.8183 95.6702 25.8183C93.7742 25.8183 92.0942 25.3983 90.6302 24.5583C89.1662 23.6943 88.0142 22.4944 87.1742 20.9584C86.3582 19.3984 85.9502 17.5983 85.9502 15.5583Z" fill="black"/>
<path d="M79.4058 8.53835C80.0058 7.53035 80.7978 6.75035 81.7818 6.19835C82.7898 5.62235 83.9778 5.33435 85.3458 5.33435V9.58235H84.3018C82.6938 9.58235 81.4698 9.99035 80.6298 10.8063C79.8138 11.6223 79.4058 13.0384 79.4058 15.0543V25.4944H75.3018V5.65835H79.4058V8.53835Z" fill="black"/>
<path d="M73.0636 15.0904C73.0636 15.8343 73.0156 16.5063 72.9196 17.1063H57.7636C57.8836 18.6903 58.4716 19.9623 59.5276 20.9223C60.5836 21.8823 61.8796 22.3624 63.4156 22.3624C65.6236 22.3624 67.1836 21.4384 68.0956 19.5904H72.5236C71.9236 21.4144 70.8316 22.9144 69.2476 24.0904C67.6876 25.2424 65.7436 25.8183 63.4156 25.8183C61.5196 25.8183 59.8156 25.3983 58.3036 24.5583C56.8156 23.6943 55.6396 22.4944 54.7756 20.9584C53.9356 19.3984 53.5156 17.5983 53.5156 15.5583C53.5156 13.5183 53.9236 11.7303 54.7396 10.1944C55.5796 8.63435 56.7436 7.43435 58.2316 6.59435C59.7436 5.75435 61.4716 5.33435 63.4156 5.33435C65.2876 5.33435 66.9556 5.74235 68.4196 6.55835C69.8836 7.37435 71.0236 8.52635 71.8396 10.0143C72.6556 11.4783 73.0636 13.1703 73.0636 15.0904ZM68.7796 13.7943C68.7556 12.2823 68.2156 11.0703 67.1596 10.1583C66.1036 9.24635 64.7956 8.79035 63.2356 8.79035C61.8196 8.79035 60.6076 9.24635 59.5996 10.1583C58.5916 11.0463 57.9916 12.2583 57.7996 13.7943H68.7796Z" fill="black"/>
<path d="M52.5274 0.474365L56.0957 3.82237H45.8674V25.4944H41.7634V3.82237H35.0674V0.474365H52.5274Z" fill="black"/>
</svg>
