<svg xmlns="http://www.w3.org/2000/svg" height="20px" viewBox="0 -960 960 960" width="20px" fill="currentColor"><path d="M213-117.21q-21-21.21-21-51T213.21-219q21.21-21 51-21T315-218.79q21 21.21 21 51T314.79-117q-21.21 21-51 21T213-117.21Zm432 0q-21-21.21-21-51T645.21-219q21.21-21 51-21T747-218.79q21 21.21 21 51T746.79-117q-21.21 21-51 21T645-117.21ZM222-768h570q14 0 20.5 11t1.5 23L702.63-476.14Q694-456 676.5-444T637-432H317l-42 72h457q15.3 0 25.65 10.29Q768-339.42 768-324.21t-10.35 25.71Q747.3-288 732-288H276q-43 0-63.5-36.15-20.5-36.16.5-71.85l52-90-131-306H84q-15.3 0-25.65-10.29Q48-812.58 48-827.79t10.35-25.71Q68.7-864 84-864h73q11 0 19.5 6t13.5 16l32 74Z"/></svg>